# xmcd
#
# Track frame offsets:
#	150
#	15215
#	28692
#	41142
#	58717
#	76837
#	92295
#	113010
#	133792
#	148772
#	173970
#
# Disc length: 2545 seconds
#
# Revision: 2
# Processed by: cddbd v1.5.1PL2 Copyright (c) Steve Scherf et al.
# Submitted via: audiograbber 1.81.03
#
DISCID=8509ef0b
DTITLE=Dennis Agajanian - Come to the Rock
DYEAR=2005
DGENRE=Christian
TTITLE0=Cryin' Holy to the Lord
TTITLE1=River of Jordan
TTITLE2=Come to the Rock
TTITLE3=He is Risen
TTITLE4=Colleen's Doberman
TTITLE5=He's Bigger than All of my Sins
TTITLE6=Angels Anyway
TTITLE7=Devil on the Run
TTITLE8=Jesus is the Rock of my Salvation
TTITLE9=Higher Ground
TTITLE10=Place to Hang My Guns
EXTD=
EXTT0=
EXTT1=
EXTT2=
EXTT3=
EXTT4=
EXTT5=
EXTT6=
EXTT7=
EXTT8=
EXTT9=
EXTT10=
PLAYORDER=
